<mxfile host="app.diagrams.net" modified="2024-04-26T11:11:55.033Z" agent="Mozilla/5.0 (Windows NT 10.0; Win64; x64) AppleWebKit/537.36 (KHTML, like Gecko) Chrome/124.0.0.0 Safari/537.36" etag="xEGSlKO7YUg6jp23XFae" version="24.2.8" type="device">
  <diagram id="74R-9tX7TL93OtxGvx-q" name="Page-1">
    <mxGraphModel dx="1707" dy="1603" grid="1" gridSize="10" guides="1" tooltips="1" connect="1" arrows="1" fold="1" page="1" pageScale="1" pageWidth="827" pageHeight="1169" math="0" shadow="0">
      <root>
        <mxCell id="0" />
        <mxCell id="1" parent="0" />
        <mxCell id="tmJQToJs_ofcO0lPk8p_-60" value="" style="rounded=0;whiteSpace=wrap;html=1;fillColor=#fff2cc;fontFamily=Helvetica;fontSize=14;strokeColor=none;" parent="1" vertex="1">
          <mxGeometry x="-250" y="-1100" width="280" height="1190" as="geometry" />
        </mxCell>
        <mxCell id="roKW-7SxGmVdzLlYCuaA-19" style="rounded=0;orthogonalLoop=1;jettySize=auto;html=1;entryX=0.5;entryY=0;entryDx=0;entryDy=0;fontSize=14;" parent="1" source="tmJQToJs_ofcO0lPk8p_-12" target="8mZ_FmGga-K4OqEKXEgO-4" edge="1">
          <mxGeometry relative="1" as="geometry">
            <mxPoint x="-110" y="-519" as="sourcePoint" />
          </mxGeometry>
        </mxCell>
        <mxCell id="8mZ_FmGga-K4OqEKXEgO-11" style="rounded=0;orthogonalLoop=1;jettySize=auto;html=1;exitX=0.5;exitY=1;exitDx=0;exitDy=0;" parent="1" source="8mZ_FmGga-K4OqEKXEgO-3" target="8mZ_FmGga-K4OqEKXEgO-10" edge="1">
          <mxGeometry relative="1" as="geometry" />
        </mxCell>
        <mxCell id="8mZ_FmGga-K4OqEKXEgO-3" value="&lt;font face=&quot;arial&quot;&gt;&lt;span style=&quot;font-size: 14px&quot;&gt;Drunkard gets thrown out of Inn / Wyrzucenie awanturnika z karczmy&lt;/span&gt;&lt;/font&gt;" style="rounded=0;whiteSpace=wrap;html=1;sketch=0;fillColor=#ffe6cc;strokeColor=#d79b00;align=center;" parent="1" vertex="1">
          <mxGeometry x="-240" y="-1020" width="260" height="40" as="geometry" />
        </mxCell>
        <mxCell id="roKW-7SxGmVdzLlYCuaA-30" style="edgeStyle=none;rounded=0;orthogonalLoop=1;jettySize=auto;html=1;exitX=0.5;exitY=1;exitDx=0;exitDy=0;entryX=0.5;entryY=0;entryDx=0;entryDy=0;fontSize=14;strokeWidth=1;" parent="1" source="8mZ_FmGga-K4OqEKXEgO-4" target="roKW-7SxGmVdzLlYCuaA-28" edge="1">
          <mxGeometry relative="1" as="geometry" />
        </mxCell>
        <mxCell id="8mZ_FmGga-K4OqEKXEgO-4" value="&lt;font face=&quot;arial&quot;&gt;&lt;span style=&quot;font-size: 14px&quot;&gt;Nutrition / Odżywianie;&lt;br&gt;&lt;/span&gt;&lt;/font&gt;&lt;font face=&quot;arial&quot; style=&quot;font-size: 12px&quot;&gt;&lt;span style=&quot;font-size: 14px&quot;&gt;(Main_hero,&amp;nbsp;&lt;/span&gt;&lt;/font&gt;&lt;font face=&quot;arial&quot; style=&quot;font-size: 12px&quot;&gt;&lt;span style=&quot;font-size: 14px&quot;&gt;Elixir)&lt;/span&gt;&lt;/font&gt;" style="rounded=0;whiteSpace=wrap;html=1;align=center;fillColor=#ffffff;fontSize=14;" parent="1" vertex="1">
          <mxGeometry x="-240" y="-460" width="260" height="40" as="geometry" />
        </mxCell>
        <mxCell id="roKW-7SxGmVdzLlYCuaA-20" style="rounded=0;orthogonalLoop=1;jettySize=auto;html=1;exitX=0.5;exitY=1;exitDx=0;exitDy=0;entryX=0;entryY=0.5;entryDx=0;entryDy=0;fontSize=14;strokeWidth=1;edgeStyle=orthogonalEdgeStyle;" parent="1" source="roKW-7SxGmVdzLlYCuaA-4" target="8mZ_FmGga-K4OqEKXEgO-4" edge="1">
          <mxGeometry relative="1" as="geometry">
            <mxPoint x="-335" y="-519" as="sourcePoint" />
            <Array as="points">
              <mxPoint x="-399" y="-440" />
            </Array>
          </mxGeometry>
        </mxCell>
        <mxCell id="roKW-7SxGmVdzLlYCuaA-10" style="edgeStyle=none;rounded=0;orthogonalLoop=1;jettySize=auto;html=1;exitX=0.5;exitY=1;exitDx=0;exitDy=0;fontSize=14;" parent="1" source="8mZ_FmGga-K4OqEKXEgO-6" target="roKW-7SxGmVdzLlYCuaA-1" edge="1">
          <mxGeometry relative="1" as="geometry" />
        </mxCell>
        <mxCell id="8mZ_FmGga-K4OqEKXEgO-6" value="&lt;span id=&quot;docs-internal-guid-4cfbbf0f-7fff-1ddc-6e00-4f36d3d0db7e&quot;&gt;&lt;span style=&quot;background-color: transparent ; vertical-align: baseline&quot;&gt;&lt;font&gt;&lt;font face=&quot;arial&quot;&gt;&lt;span style=&quot;font-size: 14px&quot;&gt;Location change / Zmiana lokacji; (Main_hero, Village)&lt;/span&gt;&lt;/font&gt;&lt;br&gt;&lt;/font&gt;&lt;/span&gt;&lt;/span&gt;" style="rounded=0;whiteSpace=wrap;html=1;align=center;" parent="1" vertex="1">
          <mxGeometry x="-240" y="-880" width="260" height="40" as="geometry" />
        </mxCell>
        <mxCell id="8mZ_FmGga-K4OqEKXEgO-12" style="edgeStyle=orthogonalEdgeStyle;rounded=0;orthogonalLoop=1;jettySize=auto;html=1;exitX=0.5;exitY=1;exitDx=0;exitDy=0;entryX=0.5;entryY=0;entryDx=0;entryDy=0;" parent="1" source="8mZ_FmGga-K4OqEKXEgO-10" target="8mZ_FmGga-K4OqEKXEgO-6" edge="1">
          <mxGeometry relative="1" as="geometry" />
        </mxCell>
        <mxCell id="0h0rLAMfrDWNozQSX6OC-6" style="rounded=0;orthogonalLoop=1;jettySize=auto;html=1;exitX=0;exitY=0.5;exitDx=0;exitDy=0;edgeStyle=orthogonalEdgeStyle;entryX=0.5;entryY=0;entryDx=0;entryDy=0;" parent="1" source="8mZ_FmGga-K4OqEKXEgO-10" target="0h0rLAMfrDWNozQSX6OC-8" edge="1">
          <mxGeometry relative="1" as="geometry">
            <mxPoint x="-637" y="-750" as="targetPoint" />
            <Array as="points">
              <mxPoint x="-690" y="-929" />
            </Array>
          </mxGeometry>
        </mxCell>
        <mxCell id="8mZ_FmGga-K4OqEKXEgO-10" value="&lt;font face=&quot;arial&quot;&gt;&lt;span style=&quot;font-size: 14px&quot;&gt;Obtaining poison / Zdobycie trucizny&lt;/span&gt;&lt;/font&gt;" style="rounded=0;whiteSpace=wrap;html=1;sketch=0;fillColor=#ffe6cc;strokeColor=#d79b00;align=center;" parent="1" vertex="1">
          <mxGeometry x="-240" y="-950" width="260" height="40" as="geometry" />
        </mxCell>
        <mxCell id="roKW-7SxGmVdzLlYCuaA-11" style="edgeStyle=none;rounded=0;orthogonalLoop=1;jettySize=auto;html=1;entryX=0.5;entryY=0;entryDx=0;entryDy=0;fontSize=14;" parent="1" source="tmJQToJs_ofcO0lPk8p_-1" target="roKW-7SxGmVdzLlYCuaA-2" edge="1">
          <mxGeometry relative="1" as="geometry" />
        </mxCell>
        <mxCell id="roKW-7SxGmVdzLlYCuaA-1" value="Poisoning item / Zatrucie przedmiotu; (&lt;span style=&quot;font-family: &amp;#34;arial&amp;#34;&quot;&gt;Main_hero,&amp;nbsp;&lt;/span&gt;Poison/Herbs,Well)" style="rounded=0;whiteSpace=wrap;html=1;sketch=0;align=center;fontSize=14;" parent="1" vertex="1">
          <mxGeometry x="-240" y="-810" width="260" height="40" as="geometry" />
        </mxCell>
        <mxCell id="roKW-7SxGmVdzLlYCuaA-12" style="rounded=0;orthogonalLoop=1;jettySize=auto;html=1;exitX=0.5;exitY=1;exitDx=0;exitDy=0;fontSize=14;" parent="1" source="roKW-7SxGmVdzLlYCuaA-2" target="tmJQToJs_ofcO0lPk8p_-12" edge="1">
          <mxGeometry relative="1" as="geometry">
            <mxPoint x="-600" y="-518" as="targetPoint" />
          </mxGeometry>
        </mxCell>
        <mxCell id="roKW-7SxGmVdzLlYCuaA-13" style="rounded=0;orthogonalLoop=1;jettySize=auto;html=1;entryX=0.804;entryY=0.021;entryDx=0;entryDy=0;fontSize=14;edgeStyle=orthogonalEdgeStyle;exitX=0;exitY=0.5;exitDx=0;exitDy=0;entryPerimeter=0;strokeWidth=1;" parent="1" source="0h0rLAMfrDWNozQSX6OC-1" target="roKW-7SxGmVdzLlYCuaA-4" edge="1">
          <mxGeometry relative="1" as="geometry">
            <mxPoint x="-240" y="-1099" as="sourcePoint" />
            <Array as="points">
              <mxPoint x="-320" y="-1140" />
            </Array>
          </mxGeometry>
        </mxCell>
        <mxCell id="qkNz-_XRwE-YOpz0Km-f-3" style="edgeStyle=orthogonalEdgeStyle;rounded=0;orthogonalLoop=1;jettySize=auto;html=1;entryX=0.5;entryY=0;entryDx=0;entryDy=0;exitX=1;exitY=0.5;exitDx=0;exitDy=0;" parent="1" source="roKW-7SxGmVdzLlYCuaA-2" target="qkNz-_XRwE-YOpz0Km-f-1" edge="1">
          <mxGeometry relative="1" as="geometry">
            <mxPoint x="90" y="-680" as="sourcePoint" />
            <Array as="points">
              <mxPoint x="460" y="-630" />
            </Array>
          </mxGeometry>
        </mxCell>
        <mxCell id="roKW-7SxGmVdzLlYCuaA-2" value="&lt;span id=&quot;docs-internal-guid-4cfbbf0f-7fff-1ddc-6e00-4f36d3d0db7e&quot;&gt;&lt;span style=&quot;background-color: transparent ; vertical-align: baseline&quot;&gt;&lt;font&gt;&lt;font face=&quot;arial&quot;&gt;&lt;span style=&quot;font-size: 14px&quot;&gt;Location change / Zmiana lokacji;&lt;/span&gt;&lt;/font&gt;&lt;span style=&quot;font-family: &amp;#34;arial&amp;#34; ; font-size: 14px&quot;&gt;(Main_hero, Wizards_hut)&lt;/span&gt;&lt;br&gt;&lt;/font&gt;&lt;/span&gt;&lt;/span&gt;" style="rounded=0;whiteSpace=wrap;html=1;align=center;" parent="1" vertex="1">
          <mxGeometry x="-240" y="-650" width="260" height="40" as="geometry" />
        </mxCell>
        <mxCell id="roKW-7SxGmVdzLlYCuaA-4" value="&lt;font face=&quot;arial&quot;&gt;&lt;span style=&quot;font-size: 14px&quot;&gt;Making a deal / Transakcja kupna-sprzedaży;&amp;nbsp;&lt;/span&gt;&lt;/font&gt;&lt;font face=&quot;arial&quot; style=&quot;font-size: 12px&quot;&gt;&lt;span style=&quot;font-size: 14px&quot;&gt;(&lt;/span&gt;&lt;/font&gt;&lt;span style=&quot;font-family: &amp;#34;arial&amp;#34;&quot;&gt;&lt;b&gt;Main_hero&lt;/b&gt;,&amp;nbsp;&lt;/span&gt;&lt;font face=&quot;arial&quot; style=&quot;font-size: 12px&quot;&gt;&lt;span style=&quot;font-size: 14px&quot;&gt;Wizard,&amp;nbsp;&lt;/span&gt;&lt;/font&gt;&lt;span style=&quot;font-family: &amp;#34;arial&amp;#34;&quot;&gt;Elixir&lt;/span&gt;&lt;font face=&quot;arial&quot; style=&quot;font-size: 12px&quot;&gt;&lt;span style=&quot;font-size: 14px&quot;&gt;)&lt;/span&gt;&lt;/font&gt;&lt;font face=&quot;arial&quot;&gt;&lt;br&gt;&lt;/font&gt;" style="rounded=0;whiteSpace=wrap;html=1;fillColor=#ffffff;fontSize=14;" parent="1" vertex="1">
          <mxGeometry x="-530" y="-530" width="260" height="40" as="geometry" />
        </mxCell>
        <mxCell id="roKW-7SxGmVdzLlYCuaA-43" style="edgeStyle=orthogonalEdgeStyle;rounded=0;orthogonalLoop=1;jettySize=auto;html=1;entryX=1;entryY=0.5;entryDx=0;entryDy=0;fontSize=14;exitX=0.25;exitY=1;exitDx=0;exitDy=0;" parent="1" source="qkNz-_XRwE-YOpz0Km-f-1" target="roKW-7SxGmVdzLlYCuaA-28" edge="1">
          <mxGeometry relative="1" as="geometry">
            <Array as="points">
              <mxPoint x="395" y="-370" />
            </Array>
            <mxPoint x="480" y="-539.25" as="sourcePoint" />
          </mxGeometry>
        </mxCell>
        <mxCell id="roKW-7SxGmVdzLlYCuaA-9" value="" style="ellipse;whiteSpace=wrap;html=1;aspect=fixed;fontSize=14;align=center;fillColor=#000000;" parent="1" vertex="1">
          <mxGeometry x="225" y="-500" width="40" height="40" as="geometry" />
        </mxCell>
        <mxCell id="roKW-7SxGmVdzLlYCuaA-31" style="edgeStyle=none;rounded=0;orthogonalLoop=1;jettySize=auto;html=1;fontSize=14;strokeWidth=1;" parent="1" source="roKW-7SxGmVdzLlYCuaA-28" target="qkNz-_XRwE-YOpz0Km-f-7" edge="1">
          <mxGeometry relative="1" as="geometry">
            <mxPoint x="-110" y="-300" as="targetPoint" />
          </mxGeometry>
        </mxCell>
        <mxCell id="qkNz-_XRwE-YOpz0Km-f-13" style="edgeStyle=orthogonalEdgeStyle;rounded=0;orthogonalLoop=1;jettySize=auto;html=1;exitX=0.5;exitY=1;exitDx=0;exitDy=0;entryX=0.25;entryY=0;entryDx=0;entryDy=0;" parent="1" source="roKW-7SxGmVdzLlYCuaA-28" target="qkNz-_XRwE-YOpz0Km-f-8" edge="1">
          <mxGeometry relative="1" as="geometry">
            <Array as="points">
              <mxPoint x="-110" y="-330" />
              <mxPoint x="115" y="-330" />
            </Array>
          </mxGeometry>
        </mxCell>
        <mxCell id="roKW-7SxGmVdzLlYCuaA-28" value="&lt;span id=&quot;docs-internal-guid-4cfbbf0f-7fff-1ddc-6e00-4f36d3d0db7e&quot;&gt;&lt;span style=&quot;background-color: transparent ; vertical-align: baseline&quot;&gt;&lt;font&gt;&lt;font face=&quot;arial&quot;&gt;&lt;span style=&quot;font-size: 14px&quot;&gt;Location change / Zmiana lokacji;&lt;br&gt;&lt;/span&gt;&lt;/font&gt;&lt;span style=&quot;font-family: &amp;#34;arial&amp;#34;&quot;&gt;(Main_hero, Dragons_lair)&lt;/span&gt;&lt;br&gt;&lt;/font&gt;&lt;/span&gt;&lt;/span&gt;" style="rounded=0;whiteSpace=wrap;html=1;align=center;fillColor=#ffffff;fontSize=14;" parent="1" vertex="1">
          <mxGeometry x="-240" y="-390" width="260" height="40" as="geometry" />
        </mxCell>
        <mxCell id="roKW-7SxGmVdzLlYCuaA-33" style="rounded=0;orthogonalLoop=1;jettySize=auto;html=1;fontSize=14;exitX=0.25;exitY=1;exitDx=0;exitDy=0;edgeStyle=orthogonalEdgeStyle;" parent="1" source="qkNz-_XRwE-YOpz0Km-f-7" target="roKW-7SxGmVdzLlYCuaA-34" edge="1">
          <mxGeometry relative="1" as="geometry">
            <mxPoint x="-175" y="-200" as="sourcePoint" />
            <Array as="points">
              <mxPoint x="-175" y="-230" />
              <mxPoint x="-300" y="-230" />
            </Array>
          </mxGeometry>
        </mxCell>
        <mxCell id="roKW-7SxGmVdzLlYCuaA-34" value="" style="ellipse;whiteSpace=wrap;html=1;aspect=fixed;fontSize=14;align=center;fillColor=#000000;" parent="1" vertex="1">
          <mxGeometry x="-320" y="-210" width="40" height="40" as="geometry" />
        </mxCell>
        <mxCell id="roKW-7SxGmVdzLlYCuaA-38" style="rounded=0;orthogonalLoop=1;jettySize=auto;html=1;entryX=0.5;entryY=0;entryDx=0;entryDy=0;fontSize=14;strokeWidth=1;exitX=0.75;exitY=1;exitDx=0;exitDy=0;edgeStyle=orthogonalEdgeStyle;" parent="1" source="roKW-7SxGmVdzLlYCuaA-35" target="roKW-7SxGmVdzLlYCuaA-37" edge="1">
          <mxGeometry relative="1" as="geometry" />
        </mxCell>
        <mxCell id="njApyXF7J2SBxoW_Qhnz-1" style="edgeStyle=orthogonalEdgeStyle;rounded=0;orthogonalLoop=1;jettySize=auto;html=1;exitX=0.5;exitY=1;exitDx=0;exitDy=0;" parent="1" source="roKW-7SxGmVdzLlYCuaA-35" target="tmJQToJs_ofcO0lPk8p_-72" edge="1">
          <mxGeometry relative="1" as="geometry" />
        </mxCell>
        <mxCell id="roKW-7SxGmVdzLlYCuaA-35" value="&lt;font&gt;Turning a dead dragon into valuables&amp;nbsp;/ Zamiana martwego smoka na łuski i ząb&lt;/font&gt;" style="rounded=0;whiteSpace=wrap;html=1;align=center;fontSize=14;fontFamily=Helvetica;dashed=1;" parent="1" vertex="1">
          <mxGeometry x="-240" y="-200" width="260" height="40" as="geometry" />
        </mxCell>
        <mxCell id="2hOHdf-EcqrYG3wUd5kX-6" style="edgeStyle=orthogonalEdgeStyle;rounded=0;orthogonalLoop=1;jettySize=auto;html=1;exitX=0.5;exitY=1;exitDx=0;exitDy=0;entryX=0.5;entryY=0;entryDx=0;entryDy=0;" parent="1" source="roKW-7SxGmVdzLlYCuaA-37" target="2hOHdf-EcqrYG3wUd5kX-3" edge="1">
          <mxGeometry relative="1" as="geometry" />
        </mxCell>
        <mxCell id="roKW-7SxGmVdzLlYCuaA-37" value="&lt;span id=&quot;docs-internal-guid-4cfbbf0f-7fff-1ddc-6e00-4f36d3d0db7e&quot; style=&quot;font-size: 14px&quot;&gt;&lt;span style=&quot;background-color: transparent ; vertical-align: baseline ; font-size: 14px&quot;&gt;&lt;font style=&quot;font-size: 14px&quot;&gt;Picking item up / Podniesienie przedmiotu; (Main_hero, Dragon_tooth)&lt;br style=&quot;font-size: 14px&quot;&gt;&lt;/font&gt;&lt;/span&gt;&lt;/span&gt;" style="rounded=0;whiteSpace=wrap;html=1;fontSize=14;fontFamily=Helvetica;fillColor=#ffffff;" parent="1" vertex="1">
          <mxGeometry x="50" y="-120" width="260" height="40" as="geometry" />
        </mxCell>
        <mxCell id="0h0rLAMfrDWNozQSX6OC-3" style="rounded=0;orthogonalLoop=1;jettySize=auto;html=1;exitX=0.5;exitY=1;exitDx=0;exitDy=0;entryX=0.5;entryY=0;entryDx=0;entryDy=0;" parent="1" source="0h0rLAMfrDWNozQSX6OC-1" target="D-gStQEYV3fZ5yIvSTmN-1" edge="1">
          <mxGeometry relative="1" as="geometry" />
        </mxCell>
        <mxCell id="0h0rLAMfrDWNozQSX6OC-4" style="edgeStyle=orthogonalEdgeStyle;rounded=0;orthogonalLoop=1;jettySize=auto;html=1;entryX=0.5;entryY=0;entryDx=0;entryDy=0;exitX=0;exitY=0.5;exitDx=0;exitDy=0;" parent="1" source="0h0rLAMfrDWNozQSX6OC-1" target="0h0rLAMfrDWNozQSX6OC-2" edge="1">
          <mxGeometry relative="1" as="geometry">
            <mxPoint x="-260" y="-1067" as="sourcePoint" />
            <Array as="points">
              <mxPoint x="-470" y="-1140" />
            </Array>
          </mxGeometry>
        </mxCell>
        <mxCell id="0h0rLAMfrDWNozQSX6OC-11" style="edgeStyle=orthogonalEdgeStyle;rounded=0;orthogonalLoop=1;jettySize=auto;html=1;entryX=0.25;entryY=0;entryDx=0;entryDy=0;exitX=0;exitY=0.5;exitDx=0;exitDy=0;" parent="1" source="0h0rLAMfrDWNozQSX6OC-1" target="0h0rLAMfrDWNozQSX6OC-8" edge="1">
          <mxGeometry relative="1" as="geometry">
            <Array as="points">
              <mxPoint x="-755" y="-1140" />
            </Array>
            <mxPoint x="-270" y="-1099" as="sourcePoint" />
          </mxGeometry>
        </mxCell>
        <mxCell id="qkNz-_XRwE-YOpz0Km-f-11" style="edgeStyle=orthogonalEdgeStyle;rounded=0;orthogonalLoop=1;jettySize=auto;html=1;exitX=1;exitY=0.5;exitDx=0;exitDy=0;entryX=0.75;entryY=0;entryDx=0;entryDy=0;" parent="1" source="0h0rLAMfrDWNozQSX6OC-1" target="qkNz-_XRwE-YOpz0Km-f-7" edge="1">
          <mxGeometry relative="1" as="geometry">
            <Array as="points">
              <mxPoint x="680" y="-1140" />
              <mxPoint x="680" y="-340" />
              <mxPoint x="-45" y="-340" />
            </Array>
          </mxGeometry>
        </mxCell>
        <mxCell id="0h0rLAMfrDWNozQSX6OC-1" value="&lt;font style=&quot;font-size: 14px&quot;&gt;(Poznanie sekretu smoczego jaja, Q5)&lt;/font&gt;" style="rounded=0;whiteSpace=wrap;html=1;strokeColor=#9673a6;fillColor=#e1d5e7;" parent="1" vertex="1">
          <mxGeometry x="-240" y="-1160" width="260" height="40" as="geometry" />
        </mxCell>
        <mxCell id="0h0rLAMfrDWNozQSX6OC-5" style="edgeStyle=orthogonalEdgeStyle;rounded=0;orthogonalLoop=1;jettySize=auto;html=1;exitX=0.5;exitY=1;exitDx=0;exitDy=0;entryX=0;entryY=0.5;entryDx=0;entryDy=0;" parent="1" source="0h0rLAMfrDWNozQSX6OC-2" target="roKW-7SxGmVdzLlYCuaA-1" edge="1">
          <mxGeometry relative="1" as="geometry" />
        </mxCell>
        <mxCell id="0h0rLAMfrDWNozQSX6OC-7" style="rounded=0;orthogonalLoop=1;jettySize=auto;html=1;exitX=0.25;exitY=1;exitDx=0;exitDy=0;entryX=0.75;entryY=0;entryDx=0;entryDy=0;edgeStyle=orthogonalEdgeStyle;" parent="1" source="0h0rLAMfrDWNozQSX6OC-2" target="0h0rLAMfrDWNozQSX6OC-8" edge="1">
          <mxGeometry relative="1" as="geometry">
            <mxPoint x="-560" y="-689" as="targetPoint" />
            <Array as="points">
              <mxPoint x="-535" y="-770" />
              <mxPoint x="-625" y="-770" />
            </Array>
          </mxGeometry>
        </mxCell>
        <mxCell id="0h0rLAMfrDWNozQSX6OC-2" value="&lt;span style=&quot;font-family: &amp;#34;arial&amp;#34; ; font-size: 14px&quot;&gt;(Zdobycie trujących ziół, Q2)&lt;/span&gt;" style="rounded=0;whiteSpace=wrap;html=1;fillColor=#e1d5e7;strokeColor=#9673a6;" parent="1" vertex="1">
          <mxGeometry x="-600" y="-899" width="260" height="40" as="geometry" />
        </mxCell>
        <mxCell id="0h0rLAMfrDWNozQSX6OC-9" style="rounded=0;orthogonalLoop=1;jettySize=auto;html=1;exitX=0.5;exitY=1;exitDx=0;exitDy=0;" parent="1" source="0h0rLAMfrDWNozQSX6OC-8" target="-C62HY2DCLwvyvnExZcn-1" edge="1">
          <mxGeometry relative="1" as="geometry" />
        </mxCell>
        <mxCell id="0h0rLAMfrDWNozQSX6OC-8" value="(Zdobycie baraniny, Q8)" style="rounded=0;whiteSpace=wrap;html=1;fillColor=#e1d5e7;strokeColor=#9673a6;fontSize=14;" parent="1" vertex="1">
          <mxGeometry x="-820" y="-720" width="260" height="40" as="geometry" />
        </mxCell>
        <mxCell id="tmJQToJs_ofcO0lPk8p_-1" value="&lt;span style=&quot;font-size: 14px&quot;&gt;Wizard receives a distress call from Main hero / Bohater wzywa czarodzieja na pomoc&lt;/span&gt;" style="rounded=0;whiteSpace=wrap;html=1;sketch=0;fillColor=#ffe6cc;strokeColor=#d79b00;align=center;" parent="1" vertex="1">
          <mxGeometry x="-240" y="-740" width="260" height="60" as="geometry" />
        </mxCell>
        <mxCell id="tmJQToJs_ofcO0lPk8p_-3" value="" style="endArrow=classic;html=1;" parent="1" source="roKW-7SxGmVdzLlYCuaA-1" target="tmJQToJs_ofcO0lPk8p_-1" edge="1">
          <mxGeometry width="50" height="50" relative="1" as="geometry">
            <mxPoint x="40" y="-708" as="sourcePoint" />
            <mxPoint x="90" y="-758" as="targetPoint" />
          </mxGeometry>
        </mxCell>
        <mxCell id="tmJQToJs_ofcO0lPk8p_-5" value="" style="endArrow=classic;html=1;edgeStyle=orthogonalEdgeStyle;elbow=vertical;rounded=0;entryX=0;entryY=0.5;entryDx=0;entryDy=0;exitX=0;exitY=0.5;exitDx=0;exitDy=0;" parent="1" source="0h0rLAMfrDWNozQSX6OC-1" target="roKW-7SxGmVdzLlYCuaA-2" edge="1">
          <mxGeometry width="50" height="50" relative="1" as="geometry">
            <mxPoint x="-240" y="-1049" as="sourcePoint" />
            <mxPoint x="-240" y="-658" as="targetPoint" />
            <Array as="points">
              <mxPoint x="-280" y="-1140" />
              <mxPoint x="-280" y="-630" />
            </Array>
          </mxGeometry>
        </mxCell>
        <mxCell id="tmJQToJs_ofcO0lPk8p_-9" style="rounded=0;orthogonalLoop=1;jettySize=auto;html=1;fontSize=14;" parent="1" source="tmJQToJs_ofcO0lPk8p_-75" target="tmJQToJs_ofcO0lPk8p_-10" edge="1">
          <mxGeometry relative="1" as="geometry">
            <mxPoint x="-94.00027027027045" y="131.5" as="sourcePoint" />
          </mxGeometry>
        </mxCell>
        <mxCell id="tmJQToJs_ofcO0lPk8p_-10" value="" style="ellipse;whiteSpace=wrap;html=1;aspect=fixed;fontSize=14;align=center;fillColor=#f5f5f5;strokeColor=#666666;fontColor=#333333;" parent="1" vertex="1">
          <mxGeometry x="-420" y="-210" width="40" height="40" as="geometry" />
        </mxCell>
        <mxCell id="tmJQToJs_ofcO0lPk8p_-12" value="&lt;font face=&quot;arial&quot;&gt;&lt;span style=&quot;font-size: 14px&quot;&gt;Stealing an item from location / Kradzież przedmiotu z lokacji;&amp;nbsp;&lt;/span&gt;&lt;/font&gt;&lt;span style=&quot;font-family: &amp;#34;arial&amp;#34; ; font-size: 14px&quot;&gt;(Main_hero, Elixir)&lt;/span&gt;&lt;font face=&quot;arial&quot;&gt;&lt;br&gt;&lt;/font&gt;" style="rounded=0;whiteSpace=wrap;html=1;" parent="1" vertex="1">
          <mxGeometry x="-240" y="-530" width="260" height="40" as="geometry" />
        </mxCell>
        <mxCell id="tmJQToJs_ofcO0lPk8p_-14" style="rounded=0;orthogonalLoop=1;jettySize=auto;html=1;fontSize=14;strokeWidth=1;edgeStyle=orthogonalEdgeStyle;entryX=0.75;entryY=0;entryDx=0;entryDy=0;exitX=0.5;exitY=1;exitDx=0;exitDy=0;" parent="1" source="2hOHdf-EcqrYG3wUd5kX-3" target="tmJQToJs_ofcO0lPk8p_-72" edge="1">
          <mxGeometry relative="1" as="geometry">
            <mxPoint x="-322.49999999999955" y="222" as="sourcePoint" />
            <Array as="points">
              <mxPoint x="181" />
              <mxPoint x="-45" />
            </Array>
          </mxGeometry>
        </mxCell>
        <mxCell id="tmJQToJs_ofcO0lPk8p_-15" value="" style="ellipse;whiteSpace=wrap;html=1;aspect=fixed;fontSize=14;align=center;fillColor=#fff2cc;strokeWidth=1;strokeColor=#d6b656;" parent="1" vertex="1">
          <mxGeometry x="-130" y="120" width="40" height="40" as="geometry" />
        </mxCell>
        <mxCell id="tmJQToJs_ofcO0lPk8p_-67" value="" style="endArrow=classic;html=1;fontFamily=Helvetica;fontSize=14;exitX=1;exitY=0.5;exitDx=0;exitDy=0;edgeStyle=orthogonalEdgeStyle;rounded=0;entryX=0.75;entryY=0;entryDx=0;entryDy=0;" parent="1" source="0h0rLAMfrDWNozQSX6OC-1" target="qkNz-_XRwE-YOpz0Km-f-8" edge="1">
          <mxGeometry width="50" height="50" relative="1" as="geometry">
            <mxPoint x="-120" y="-529" as="sourcePoint" />
            <mxPoint x="260" y="-260" as="targetPoint" />
            <Array as="points">
              <mxPoint x="680" y="-1140" />
              <mxPoint x="680" y="-340" />
              <mxPoint x="245" y="-340" />
            </Array>
          </mxGeometry>
        </mxCell>
        <mxCell id="tmJQToJs_ofcO0lPk8p_-68" value="" style="endArrow=classic;html=1;fontFamily=Helvetica;fontSize=14;exitX=1;exitY=0.5;exitDx=0;exitDy=0;edgeStyle=orthogonalEdgeStyle;rounded=0;entryX=0.5;entryY=0;entryDx=0;entryDy=0;" parent="1" source="roKW-7SxGmVdzLlYCuaA-2" target="qkNz-_XRwE-YOpz0Km-f-2" edge="1">
          <mxGeometry width="50" height="50" relative="1" as="geometry">
            <mxPoint x="150" y="-729" as="sourcePoint" />
            <mxPoint x="340" y="-639" as="targetPoint" />
            <Array as="points">
              <mxPoint x="180" y="-630" />
            </Array>
          </mxGeometry>
        </mxCell>
        <mxCell id="tmJQToJs_ofcO0lPk8p_-72" value="&lt;span id=&quot;docs-internal-guid-4cfbbf0f-7fff-1ddc-6e00-4f36d3d0db7e&quot; style=&quot;font-size: 14px&quot;&gt;&lt;span style=&quot;background-color: transparent ; vertical-align: baseline ; font-size: 14px&quot;&gt;&lt;font style=&quot;font-size: 14px&quot;&gt;Picking item up / Podniesienie przedmiotu; (&lt;span style=&quot;color: rgb(51 , 51 , 51) ; font-family: &amp;#34;arial&amp;#34;&quot;&gt;Main_hero,&amp;nbsp;&lt;/span&gt;Dragon_egg)&amp;nbsp;&lt;br style=&quot;font-size: 14px&quot;&gt;&lt;/font&gt;&lt;/span&gt;&lt;/span&gt;" style="rounded=0;whiteSpace=wrap;html=1;fontSize=14;fontFamily=Helvetica;fillColor=#ffffff;" parent="1" vertex="1">
          <mxGeometry x="-240" y="20" width="260" height="60" as="geometry" />
        </mxCell>
        <mxCell id="tmJQToJs_ofcO0lPk8p_-75" value="Character’s arrest / Aresztowanie bohatera; (Main_hero,&amp;nbsp;&lt;b&gt;Wizard/Lawyer/Guard&lt;/b&gt;)" style="rounded=0;whiteSpace=wrap;html=1;fontSize=14;dashed=1;" parent="1" vertex="1">
          <mxGeometry x="-530" y="-305" width="260" height="60" as="geometry" />
        </mxCell>
        <mxCell id="tmJQToJs_ofcO0lPk8p_-78" value="" style="endArrow=classic;html=1;strokeColor=#000000;fontFamily=Helvetica;fontSize=14;exitX=0;exitY=0.5;exitDx=0;exitDy=0;entryX=0.5;entryY=0;entryDx=0;entryDy=0;edgeStyle=orthogonalEdgeStyle;rounded=0;" parent="1" source="roKW-7SxGmVdzLlYCuaA-28" target="tmJQToJs_ofcO0lPk8p_-75" edge="1">
          <mxGeometry width="50" height="50" relative="1" as="geometry">
            <mxPoint x="180" y="-519" as="sourcePoint" />
            <mxPoint x="230" y="-569" as="targetPoint" />
          </mxGeometry>
        </mxCell>
        <mxCell id="tmJQToJs_ofcO0lPk8p_-79" value="" style="endArrow=classic;html=1;strokeColor=#000000;fontFamily=Helvetica;fontSize=14;exitX=0.75;exitY=1;exitDx=0;exitDy=0;edgeStyle=orthogonalEdgeStyle;rounded=0;entryX=1;entryY=0.25;entryDx=0;entryDy=0;" parent="1" source="qkNz-_XRwE-YOpz0Km-f-8" target="8mZ_FmGga-K4OqEKXEgO-3" edge="1">
          <mxGeometry width="50" height="50" relative="1" as="geometry">
            <mxPoint x="310" y="-280" as="sourcePoint" />
            <mxPoint x="20" y="-1009" as="targetPoint" />
            <Array as="points">
              <mxPoint x="235" y="-230" />
              <mxPoint x="630" y="-230" />
              <mxPoint x="630" y="-1010" />
            </Array>
          </mxGeometry>
        </mxCell>
        <mxCell id="tmJQToJs_ofcO0lPk8p_-83" value="" style="endArrow=classic;html=1;fontFamily=Helvetica;fontSize=14;exitX=0.5;exitY=1;exitDx=0;exitDy=0;entryX=0.5;entryY=0;entryDx=0;entryDy=0;strokeWidth=1;" parent="1" source="tmJQToJs_ofcO0lPk8p_-72" target="tmJQToJs_ofcO0lPk8p_-15" edge="1">
          <mxGeometry width="50" height="50" relative="1" as="geometry">
            <mxPoint x="-110" y="-79" as="sourcePoint" />
            <mxPoint x="-160" y="-209" as="targetPoint" />
          </mxGeometry>
        </mxCell>
        <mxCell id="-C62HY2DCLwvyvnExZcn-1" value="Poisoning item / Zatrucie przedmiotu; (Main_hero, Mutton_chop, Poison/Herbs)" style="rounded=0;whiteSpace=wrap;html=1;sketch=0;align=center;fontSize=14;" parent="1" vertex="1">
          <mxGeometry x="-820" y="-530" width="260" height="40" as="geometry" />
        </mxCell>
        <mxCell id="2hOHdf-EcqrYG3wUd5kX-2" style="edgeStyle=orthogonalEdgeStyle;rounded=0;orthogonalLoop=1;jettySize=auto;html=1;exitX=0.5;exitY=1;exitDx=0;exitDy=0;entryX=0.5;entryY=0;entryDx=0;entryDy=0;" parent="1" source="-C62HY2DCLwvyvnExZcn-3" target="TVuhnY22HEhlasIkVOb5-7" edge="1">
          <mxGeometry relative="1" as="geometry" />
        </mxCell>
        <mxCell id="-C62HY2DCLwvyvnExZcn-3" value="Dropping item / Odłożenie przedmiotu; (Mutton_chop)" style="rounded=0;whiteSpace=wrap;html=1;sketch=0;align=center;fontSize=14;" parent="1" vertex="1">
          <mxGeometry x="-820" y="-390" width="260" height="40" as="geometry" />
        </mxCell>
        <mxCell id="-C62HY2DCLwvyvnExZcn-6" value="" style="endArrow=classic;html=1;exitX=0.5;exitY=1;exitDx=0;exitDy=0;entryX=0.5;entryY=0;entryDx=0;entryDy=0;" parent="1" source="-C62HY2DCLwvyvnExZcn-1" target="TVuhnY22HEhlasIkVOb5-1" edge="1">
          <mxGeometry width="50" height="50" relative="1" as="geometry">
            <mxPoint x="-270" y="-298" as="sourcePoint" />
            <mxPoint x="-220" y="-348" as="targetPoint" />
          </mxGeometry>
        </mxCell>
        <mxCell id="-C62HY2DCLwvyvnExZcn-10" value="" style="endArrow=classic;html=1;entryX=0;entryY=0.5;entryDx=0;entryDy=0;edgeStyle=orthogonalEdgeStyle;rounded=0;exitX=0.5;exitY=1;exitDx=0;exitDy=0;" parent="1" source="TVuhnY22HEhlasIkVOb5-5" target="tmJQToJs_ofcO0lPk8p_-72" edge="1">
          <mxGeometry width="50" height="50" relative="1" as="geometry">
            <mxPoint x="-600" y="-200" as="sourcePoint" />
            <mxPoint x="-600" y="-139" as="targetPoint" />
            <Array as="points">
              <mxPoint x="-690" y="50" />
            </Array>
          </mxGeometry>
        </mxCell>
        <mxCell id="qkNz-_XRwE-YOpz0Km-f-6" style="edgeStyle=orthogonalEdgeStyle;rounded=0;orthogonalLoop=1;jettySize=auto;html=1;exitX=0.75;exitY=1;exitDx=0;exitDy=0;entryX=1;entryY=0.75;entryDx=0;entryDy=0;" parent="1" source="qkNz-_XRwE-YOpz0Km-f-1" target="8mZ_FmGga-K4OqEKXEgO-3" edge="1">
          <mxGeometry relative="1" as="geometry">
            <Array as="points">
              <mxPoint x="525" y="-500" />
              <mxPoint x="610" y="-500" />
              <mxPoint x="610" y="-990" />
            </Array>
          </mxGeometry>
        </mxCell>
        <mxCell id="qkNz-_XRwE-YOpz0Km-f-1" value="&lt;font&gt;Fight ending with character’s escape / Walka zakończona ucieczką uczestnika;&amp;nbsp;&lt;span style=&quot;font-family: arial;&quot;&gt;(&lt;/span&gt;&lt;span style=&quot;font-family: arial;&quot;&gt;&lt;b&gt;Main_hero&lt;/b&gt;,&amp;nbsp;&lt;/span&gt;&lt;span style=&quot;font-family: arial;&quot;&gt;Wizard)&lt;/span&gt;&lt;br style=&quot;font-size: 14px&quot;&gt;&lt;/font&gt;" style="rounded=0;whiteSpace=wrap;html=1;fontSize=14;fontFamily=Helvetica;" parent="1" vertex="1">
          <mxGeometry x="330" y="-590" width="260" height="60" as="geometry" />
        </mxCell>
        <mxCell id="qkNz-_XRwE-YOpz0Km-f-4" style="edgeStyle=orthogonalEdgeStyle;rounded=0;orthogonalLoop=1;jettySize=auto;html=1;exitX=0.25;exitY=1;exitDx=0;exitDy=0;" parent="1" source="qkNz-_XRwE-YOpz0Km-f-2" target="tmJQToJs_ofcO0lPk8p_-12" edge="1">
          <mxGeometry relative="1" as="geometry">
            <Array as="points">
              <mxPoint x="125" y="-500" />
            </Array>
          </mxGeometry>
        </mxCell>
        <mxCell id="qkNz-_XRwE-YOpz0Km-f-5" style="edgeStyle=orthogonalEdgeStyle;rounded=0;orthogonalLoop=1;jettySize=auto;html=1;exitX=0.75;exitY=1;exitDx=0;exitDy=0;" parent="1" source="qkNz-_XRwE-YOpz0Km-f-2" target="roKW-7SxGmVdzLlYCuaA-9" edge="1">
          <mxGeometry relative="1" as="geometry" />
        </mxCell>
        <mxCell id="qkNz-_XRwE-YOpz0Km-f-2" value="&lt;font&gt;Fight ending with character’s death / Walka zakończona śmiercią uczestnika;&amp;nbsp;&lt;span style=&quot;font-family: arial;&quot;&gt;(&lt;/span&gt;&lt;span style=&quot;font-family: arial;&quot;&gt;&lt;b&gt;Main_hero&lt;/b&gt;,&amp;nbsp;&lt;/span&gt;&lt;span style=&quot;font-family: arial;&quot;&gt;Wizard)&lt;/span&gt;&lt;br style=&quot;font-size: 14px&quot;&gt;&lt;/font&gt;" style="rounded=0;whiteSpace=wrap;html=1;fontSize=14;fontFamily=Helvetica;" parent="1" vertex="1">
          <mxGeometry x="50" y="-590" width="260" height="60" as="geometry" />
        </mxCell>
        <mxCell id="qkNz-_XRwE-YOpz0Km-f-14" style="rounded=0;orthogonalLoop=1;jettySize=auto;html=1;exitX=0.5;exitY=1;exitDx=0;exitDy=0;entryX=0.5;entryY=0;entryDx=0;entryDy=0;" parent="1" source="qkNz-_XRwE-YOpz0Km-f-7" target="roKW-7SxGmVdzLlYCuaA-35" edge="1">
          <mxGeometry relative="1" as="geometry" />
        </mxCell>
        <mxCell id="qkNz-_XRwE-YOpz0Km-f-7" value="&lt;font&gt;Fight ending with character’s death / Walka zakończona śmiercią uczestnika; (&lt;span style=&quot;font-family: arial;&quot;&gt;Main_hero,&amp;nbsp;&lt;/span&gt;&lt;b&gt;Dragon&lt;/b&gt;)&lt;br style=&quot;font-size: 14px&quot;&gt;&lt;/font&gt;" style="rounded=0;whiteSpace=wrap;html=1;fontSize=14;fontFamily=Helvetica;dashed=1;" parent="1" vertex="1">
          <mxGeometry x="-240" y="-305" width="260" height="60" as="geometry" />
        </mxCell>
        <mxCell id="qkNz-_XRwE-YOpz0Km-f-8" value="&lt;font face=&quot;arial&quot;&gt;&lt;span style=&quot;font-size: 14px&quot;&gt;Fight ending with character’s escape / Walka zakończona ucieczką uczestnika;&amp;nbsp;&lt;/span&gt;&lt;/font&gt;&lt;span style=&quot;font-size: 14px;&quot;&gt;(&lt;/span&gt;&lt;span style=&quot;font-size: 14px; font-family: arial;&quot;&gt;Main_hero,&amp;nbsp;&lt;/span&gt;&lt;span style=&quot;font-size: 14px;&quot;&gt;&lt;b&gt;Dragon&lt;/b&gt;)&lt;/span&gt;&lt;font face=&quot;arial&quot;&gt;&lt;br&gt;&lt;/font&gt;" style="rounded=0;whiteSpace=wrap;html=1;dashed=1;" parent="1" vertex="1">
          <mxGeometry x="50" y="-305" width="260" height="60" as="geometry" />
        </mxCell>
        <mxCell id="TVuhnY22HEhlasIkVOb5-6" style="edgeStyle=orthogonalEdgeStyle;rounded=0;orthogonalLoop=1;jettySize=auto;html=1;exitX=0.5;exitY=1;exitDx=0;exitDy=0;entryX=0.5;entryY=0;entryDx=0;entryDy=0;" parent="1" source="2hOHdf-EcqrYG3wUd5kX-1" target="UrlB-s88o188QQIzf4j6-1" edge="1">
          <mxGeometry relative="1" as="geometry" />
        </mxCell>
        <mxCell id="2hOHdf-EcqrYG3wUd5kX-1" value="Nutrition with poison / Spożycie trucizny; (Dragon, Mutton_chop)" style="rounded=0;whiteSpace=wrap;html=1;sketch=0;align=center;fontSize=14;dashed=1;" parent="1" vertex="1">
          <mxGeometry x="-820" y="-180" width="260" height="40" as="geometry" />
        </mxCell>
        <mxCell id="2hOHdf-EcqrYG3wUd5kX-3" value="&lt;span id=&quot;docs-internal-guid-4cfbbf0f-7fff-1ddc-6e00-4f36d3d0db7e&quot; style=&quot;font-size: 14px&quot;&gt;&lt;span style=&quot;background-color: transparent ; vertical-align: baseline ; font-size: 14px&quot;&gt;&lt;font style=&quot;font-size: 14px&quot;&gt;Picking item up / Podniesienie przedmiotu; (Main_hero, Dragon_scales)&lt;br style=&quot;font-size: 14px&quot;&gt;&lt;/font&gt;&lt;/span&gt;&lt;/span&gt;" style="rounded=0;whiteSpace=wrap;html=1;fontSize=14;fontFamily=Helvetica;fillColor=#ffffff;" parent="1" vertex="1">
          <mxGeometry x="50" y="-60" width="260" height="40" as="geometry" />
        </mxCell>
        <mxCell id="D-gStQEYV3fZ5yIvSTmN-3" style="edgeStyle=orthogonalEdgeStyle;rounded=0;orthogonalLoop=1;jettySize=auto;html=1;exitX=0.5;exitY=1;exitDx=0;exitDy=0;" parent="1" source="D-gStQEYV3fZ5yIvSTmN-1" target="8mZ_FmGga-K4OqEKXEgO-3" edge="1">
          <mxGeometry relative="1" as="geometry" />
        </mxCell>
        <mxCell id="D-gStQEYV3fZ5yIvSTmN-1" value="&lt;span id=&quot;docs-internal-guid-4cfbbf0f-7fff-1ddc-6e00-4f36d3d0db7e&quot;&gt;&lt;span style=&quot;background-color: transparent ; vertical-align: baseline&quot;&gt;&lt;font&gt;&lt;font face=&quot;arial&quot;&gt;&lt;span style=&quot;font-size: 14px&quot;&gt;Location change / Zmiana lokacji; (Main_hero, Inn)&lt;/span&gt;&lt;/font&gt;&lt;br&gt;&lt;/font&gt;&lt;/span&gt;&lt;/span&gt;" style="rounded=0;whiteSpace=wrap;html=1;align=center;" parent="1" vertex="1">
          <mxGeometry x="-240" y="-1090" width="260" height="40" as="geometry" />
        </mxCell>
        <mxCell id="TVuhnY22HEhlasIkVOb5-2" style="edgeStyle=orthogonalEdgeStyle;rounded=0;orthogonalLoop=1;jettySize=auto;html=1;exitX=0.5;exitY=1;exitDx=0;exitDy=0;entryX=0.5;entryY=0;entryDx=0;entryDy=0;" parent="1" source="TVuhnY22HEhlasIkVOb5-1" target="-C62HY2DCLwvyvnExZcn-3" edge="1">
          <mxGeometry relative="1" as="geometry" />
        </mxCell>
        <mxCell id="TVuhnY22HEhlasIkVOb5-1" value="&lt;span id=&quot;docs-internal-guid-4cfbbf0f-7fff-1ddc-6e00-4f36d3d0db7e&quot; style=&quot;font-size: 14px&quot;&gt;&lt;span style=&quot;background-color: transparent ; vertical-align: baseline ; font-size: 14px&quot;&gt;&lt;font style=&quot;font-size: 14px&quot;&gt;&lt;font face=&quot;arial&quot;&gt;Location change / Zmiana lokacji;&lt;br&gt;&lt;/font&gt;&lt;span style=&quot;font-family: &amp;#34;arial&amp;#34;&quot;&gt;(Main_hero, Forest)&lt;/span&gt;&lt;br style=&quot;font-size: 14px&quot;&gt;&lt;/font&gt;&lt;/span&gt;&lt;/span&gt;" style="rounded=0;whiteSpace=wrap;html=1;fontSize=14;fontFamily=Helvetica;fillColor=#ffffff;" parent="1" vertex="1">
          <mxGeometry x="-820" y="-460" width="260" height="40" as="geometry" />
        </mxCell>
        <mxCell id="TVuhnY22HEhlasIkVOb5-4" style="edgeStyle=orthogonalEdgeStyle;rounded=0;orthogonalLoop=1;jettySize=auto;html=1;exitX=0.5;exitY=1;exitDx=0;exitDy=0;" parent="1" source="TVuhnY22HEhlasIkVOb5-3" target="2hOHdf-EcqrYG3wUd5kX-1" edge="1">
          <mxGeometry relative="1" as="geometry" />
        </mxCell>
        <mxCell id="TVuhnY22HEhlasIkVOb5-3" value="&lt;span id=&quot;docs-internal-guid-4cfbbf0f-7fff-1ddc-6e00-4f36d3d0db7e&quot; style=&quot;font-size: 14px&quot;&gt;&lt;span style=&quot;background-color: transparent ; vertical-align: baseline ; font-size: 14px&quot;&gt;&lt;font style=&quot;font-size: 14px&quot;&gt;&lt;font face=&quot;arial&quot;&gt;Location change / Zmiana lokacji;&lt;br&gt;&lt;/font&gt;&lt;span style=&quot;font-family: &amp;#34;arial&amp;#34;&quot;&gt;(Dragon, Forest)&lt;/span&gt;&lt;br style=&quot;font-size: 14px&quot;&gt;&lt;/font&gt;&lt;/span&gt;&lt;/span&gt;" style="rounded=0;whiteSpace=wrap;html=1;fontSize=14;fontFamily=Helvetica;dashed=1;" parent="1" vertex="1">
          <mxGeometry x="-820" y="-250" width="260" height="40" as="geometry" />
        </mxCell>
        <mxCell id="TVuhnY22HEhlasIkVOb5-5" value="&lt;span id=&quot;docs-internal-guid-4cfbbf0f-7fff-1ddc-6e00-4f36d3d0db7e&quot; style=&quot;font-size: 14px&quot;&gt;&lt;span style=&quot;background-color: transparent ; vertical-align: baseline ; font-size: 14px&quot;&gt;&lt;font style=&quot;font-size: 14px&quot;&gt;&lt;font face=&quot;arial&quot;&gt;Location change / Zmiana lokacji;&lt;br&gt;&lt;/font&gt;&lt;span style=&quot;font-family: &amp;#34;arial&amp;#34;&quot;&gt;(Main_hero, Dragons_lair)&lt;/span&gt;&lt;br style=&quot;font-size: 14px&quot;&gt;&lt;/font&gt;&lt;/span&gt;&lt;/span&gt;" style="rounded=0;whiteSpace=wrap;html=1;fontSize=14;fontFamily=Helvetica;fillColor=#ffffff;" parent="1" vertex="1">
          <mxGeometry x="-820" y="-40" width="260" height="40" as="geometry" />
        </mxCell>
        <mxCell id="TVuhnY22HEhlasIkVOb5-8" style="edgeStyle=orthogonalEdgeStyle;rounded=0;orthogonalLoop=1;jettySize=auto;html=1;exitX=0.5;exitY=1;exitDx=0;exitDy=0;entryX=0.5;entryY=0;entryDx=0;entryDy=0;" parent="1" source="TVuhnY22HEhlasIkVOb5-7" target="TVuhnY22HEhlasIkVOb5-3" edge="1">
          <mxGeometry relative="1" as="geometry" />
        </mxCell>
        <mxCell id="TVuhnY22HEhlasIkVOb5-7" value="&lt;span id=&quot;docs-internal-guid-4cfbbf0f-7fff-1ddc-6e00-4f36d3d0db7e&quot; style=&quot;font-size: 14px&quot;&gt;&lt;span style=&quot;background-color: transparent ; vertical-align: baseline ; font-size: 14px&quot;&gt;&lt;font style=&quot;font-size: 14px&quot;&gt;&lt;font face=&quot;arial&quot;&gt;Location change / Zmiana lokacji;&lt;br&gt;&lt;/font&gt;&lt;span style=&quot;font-family: &amp;#34;arial&amp;#34;&quot;&gt;(Main_hero, Road)&lt;/span&gt;&lt;br style=&quot;font-size: 14px&quot;&gt;&lt;/font&gt;&lt;/span&gt;&lt;/span&gt;" style="rounded=0;whiteSpace=wrap;html=1;fontSize=14;fontFamily=Helvetica;fillColor=#ffffff;" parent="1" vertex="1">
          <mxGeometry x="-820" y="-320" width="260" height="40" as="geometry" />
        </mxCell>
        <mxCell id="TVuhnY22HEhlasIkVOb5-11" style="rounded=0;orthogonalLoop=1;jettySize=auto;html=1;fontSize=14;exitX=1;exitY=0.5;exitDx=0;exitDy=0;" parent="1" source="roKW-7SxGmVdzLlYCuaA-37" target="TVuhnY22HEhlasIkVOb5-12" edge="1">
          <mxGeometry relative="1" as="geometry">
            <mxPoint x="394" y="-160" as="sourcePoint" />
          </mxGeometry>
        </mxCell>
        <mxCell id="TVuhnY22HEhlasIkVOb5-12" value="7" style="ellipse;whiteSpace=wrap;html=1;aspect=fixed;fontSize=14;align=center;fillColor=#e1d5e7;strokeColor=#9673a6;" parent="1" vertex="1">
          <mxGeometry x="360" y="-120" width="40" height="40" as="geometry" />
        </mxCell>
        <mxCell id="UrlB-s88o188QQIzf4j6-2" style="edgeStyle=orthogonalEdgeStyle;rounded=0;orthogonalLoop=1;jettySize=auto;html=1;exitX=0.5;exitY=1;exitDx=0;exitDy=0;entryX=0.5;entryY=0;entryDx=0;entryDy=0;" parent="1" source="UrlB-s88o188QQIzf4j6-1" target="TVuhnY22HEhlasIkVOb5-5" edge="1">
          <mxGeometry relative="1" as="geometry" />
        </mxCell>
        <mxCell id="UrlB-s88o188QQIzf4j6-1" value="&lt;font&gt;Turning a dead dragon into valuables&amp;nbsp;/ Zamiana martwego smoka na łuski i ząb&lt;/font&gt;" style="rounded=0;whiteSpace=wrap;html=1;align=center;fontSize=14;fontFamily=Helvetica;dashed=1;" parent="1" vertex="1">
          <mxGeometry x="-820" y="-110" width="260" height="40" as="geometry" />
        </mxCell>
      </root>
    </mxGraphModel>
  </diagram>
</mxfile>
